<svg width="231" height="70" viewBox="0 0 231 70" fill="none" xmlns="http://www.w3.org/2000/svg"><path d="M93.5546 45.1666C92.4197 45.1666 91.3958 45.0309 90.4829 44.7595C89.5947 44.4881 88.8915 43.933 88.3734 43.0941C87.88 42.2306 87.6332 40.9476 87.6332 39.2452V27.4395C87.6332 26.1072 87.88 25.0956 88.3734 24.4048C88.8915 23.6893 89.5947 23.1958 90.4829 22.9244C91.3958 22.6531 92.432 22.5174 93.5916 22.5174C94.7759 22.5174 95.7998 22.6654 96.6633 22.9615C97.5269 23.2329 98.2054 23.7263 98.6988 24.4418C99.1923 25.1326 99.439 26.1319 99.439 27.4395V31.122C99.439 31.4592 99.1657 31.7325 98.8285 31.7325H96.4966C96.1595 31.7325 95.8862 31.4592 95.8862 31.122V27.3285C95.8862 26.5636 95.7875 26.0085 95.5901 25.6631C95.3927 25.293 95.1213 25.0463 94.7759 24.9229C94.4305 24.7995 94.0357 24.7379 93.5916 24.7379C93.1475 24.7379 92.7528 24.7995 92.4073 24.9229C92.0619 25.0463 91.7905 25.293 91.5932 25.6631C91.3958 26.0085 91.2971 26.5636 91.2971 27.3285V40.4665C91.2971 41.2067 91.3958 41.7618 91.5932 42.1319C91.7905 42.502 92.0619 42.7487 92.4073 42.8721C92.7528 42.9954 93.1475 43.0571 93.5916 43.0571C94.0604 43.0571 94.4552 42.9954 94.7759 42.8721C95.1213 42.7487 95.3927 42.502 95.5901 42.1319C95.7875 41.7618 95.8862 41.2067 95.8862 40.4665V37.1541C95.8862 36.8169 96.1595 36.5436 96.4966 36.5436H98.8285C99.1657 36.5436 99.439 36.8169 99.439 37.1541V39.2082C99.439 40.96 99.1923 42.2553 98.6988 43.0941C98.2054 43.933 97.5269 44.4881 96.6633 44.7595C95.7998 45.0309 94.7636 45.1666 93.5546 45.1666Z" fill="url(#paint0_linear_310_522)"></path><path d="M106.616 44.7225C106.279 44.7225 106.006 44.4492 106.006 44.112V28.9198H102.989C102.652 28.9198 102.379 28.6465 102.379 28.3093V27.0137C102.379 26.6766 102.652 26.4033 102.989 26.4033H112.612C112.949 26.4033 113.222 26.6766 113.222 27.0137V28.3093C113.222 28.6465 112.949 28.9198 112.612 28.9198H109.559V44.112C109.559 44.4492 109.285 44.7225 108.948 44.7225H106.616Z" fill="url(#paint1_linear_310_522)"></path><path d="M116.993 49.0155C116.656 49.0155 116.382 48.7422 116.382 48.405V27.0137C116.382 26.6766 116.656 26.4033 116.993 26.4033H119.169C119.494 26.4033 119.763 26.6588 119.778 26.984L119.824 27.9206C120.046 27.4518 120.392 27.0324 120.86 26.6623C121.329 26.2922 122.094 26.1072 123.155 26.1072C124.117 26.1072 124.907 26.2799 125.523 26.6253C126.165 26.946 126.634 27.4395 126.93 28.1056C127.226 28.7471 127.374 29.5737 127.374 30.5852V39.5413C127.374 40.7749 127.238 41.7988 126.967 42.613C126.695 43.4025 126.251 43.9947 125.634 44.3894C125.018 44.7595 124.191 44.9446 123.155 44.9446C122.242 44.9446 121.526 44.7965 121.008 44.5005C120.49 44.2044 120.108 43.8466 119.861 43.4272V48.405C119.861 48.7422 119.588 49.0155 119.251 49.0155H116.993ZM121.897 42.9461C122.39 42.9461 122.772 42.8844 123.044 42.761C123.315 42.613 123.513 42.4156 123.636 42.1689C123.759 41.9222 123.833 41.6385 123.858 41.3177C123.883 40.997 123.895 40.6516 123.895 40.2815V30.9923C123.895 30.6222 123.883 30.2768 123.858 29.9561C123.833 29.6353 123.759 29.3516 123.636 29.1049C123.513 28.8335 123.315 28.6361 123.044 28.5127C122.772 28.3647 122.39 28.2907 121.897 28.2907C121.403 28.2907 121.021 28.377 120.749 28.5498C120.478 28.7225 120.28 28.9445 120.157 29.2159C120.034 29.4626 119.947 29.7464 119.898 30.0671C119.873 30.3878 119.861 30.6839 119.861 30.9553V40.4295C119.861 40.923 119.91 41.3671 120.009 41.7618C120.108 42.1319 120.293 42.428 120.564 42.65C120.86 42.8474 121.304 42.9461 121.897 42.9461Z" fill="url(#paint2_linear_310_522)"></path><path d="M136.516 45.0186C135.307 45.0186 134.283 44.8705 133.444 44.5745C132.63 44.2537 132.013 43.6739 131.594 42.8351C131.199 41.9962 131.002 40.7873 131.002 39.2082V31.1404C131.002 29.2899 131.446 27.9823 132.334 27.2174C133.222 26.4526 134.616 26.0702 136.516 26.0702C138.391 26.0702 139.773 26.4526 140.661 27.2174C141.549 27.9576 141.993 29.2653 141.993 31.1404V39.2082C141.993 40.7873 141.783 41.9962 141.364 42.8351C140.969 43.6739 140.365 44.2537 139.55 44.5745C138.736 44.8705 137.725 45.0186 136.516 45.0186ZM136.516 42.9091C137.231 42.9091 137.737 42.724 138.033 42.354C138.354 41.9592 138.514 41.2684 138.514 40.2815V30.8443C138.514 29.8821 138.366 29.2036 138.07 28.8088C137.774 28.4141 137.256 28.2167 136.516 28.2167C135.8 28.2167 135.282 28.4141 134.961 28.8088C134.641 29.1789 134.48 29.8574 134.48 30.8443V40.2815C134.48 41.2684 134.641 41.9592 134.961 42.354C135.282 42.724 135.8 42.9091 136.516 42.9091Z" fill="url(#paint3_linear_310_522)"></path><path d="M146.277 44.7225C145.94 44.7225 145.666 44.4492 145.666 44.112V27.0137C145.666 26.6766 145.94 26.4033 146.277 26.4033H148.165C148.502 26.4033 148.775 26.6766 148.775 27.0137V38.4681L153.542 26.7831C153.636 26.5534 153.859 26.4033 154.108 26.4033H156.196C156.533 26.4033 156.806 26.6766 156.806 27.0137V44.112C156.806 44.4492 156.533 44.7225 156.196 44.7225H154.345C154.008 44.7225 153.734 44.4492 153.734 44.112V31.8805C152.871 34.027 152.007 36.1735 151.144 38.32C150.353 40.3193 149.53 42.3296 148.674 44.3508C148.578 44.5763 148.357 44.7225 148.112 44.7225H146.277ZM151.181 24.5158C150.12 24.5158 149.306 24.3184 148.738 23.9237C148.171 23.5289 147.776 23.0601 147.554 22.5174C147.446 22.206 147.363 21.9132 147.307 21.6389C147.236 21.2956 147.516 21 147.866 21H148.619C148.937 21 149.19 21.2489 149.282 21.5537C149.386 21.8982 149.562 22.1701 149.811 22.3693C150.206 22.6654 150.663 22.8134 151.181 22.8134C151.748 22.8134 152.217 22.6777 152.587 22.4063C152.857 22.2037 153.047 21.9201 153.155 21.5557C153.246 21.2499 153.5 21 153.819 21H154.577C154.925 21 155.206 21.2917 155.135 21.6319C155.062 21.9812 154.94 22.3257 154.771 22.6654C154.499 23.2082 154.067 23.6523 153.475 23.9977C152.908 24.3431 152.143 24.5158 151.181 24.5158Z" fill="url(#paint4_linear_310_522)"></path><path d="M161.711 44.7225C161.374 44.7225 161.101 44.4492 161.101 44.112V23.4609C161.101 23.1238 161.374 22.8504 161.711 22.8504H163.636C163.973 22.8504 164.246 23.1238 164.246 23.4609V37.6169L169.54 23.2499C169.628 23.0099 169.857 22.8504 170.112 22.8504H172.185C172.522 22.8504 172.795 23.1238 172.795 23.4609V44.112C172.795 44.4492 172.522 44.7225 172.185 44.7225H170.26C169.923 44.7225 169.65 44.4492 169.65 44.112V30.7703L164.398 44.3325C164.307 44.5676 164.08 44.7225 163.828 44.7225H161.711Z" fill="url(#paint5_linear_310_522)"></path><path d="M177.7 44.7225C177.362 44.7225 177.089 44.4492 177.089 44.112V27.0137C177.089 26.6766 177.362 26.4033 177.7 26.4033H179.957C180.295 26.4033 180.568 26.6766 180.568 27.0137V33.2315C180.568 33.5687 180.841 33.842 181.178 33.842H184.25C184.588 33.842 184.861 33.5687 184.861 33.2315V27.0137C184.861 26.6766 185.134 26.4033 185.471 26.4033H187.692C188.029 26.4033 188.303 26.6766 188.303 27.0137V44.112C188.303 44.4492 188.029 44.7225 187.692 44.7225H185.471C185.134 44.7225 184.861 44.4492 184.861 44.112V37.1171C184.861 36.7799 184.588 36.5066 184.25 36.5066H181.178C180.841 36.5066 180.568 36.7799 180.568 37.1171V44.112C180.568 44.4492 180.295 44.7225 179.957 44.7225H177.7Z" fill="url(#paint6_linear_310_522)"></path><path d="M195.205 44.7225C194.867 44.7225 194.594 44.4492 194.594 44.112V25.367H191.726C191.389 25.367 191.115 25.0937 191.115 24.7565V23.4609C191.115 23.1238 191.389 22.8504 191.726 22.8504H201.089C201.426 22.8504 201.7 23.1238 201.7 23.4609V24.7565C201.7 25.0937 201.426 25.367 201.089 25.367H198.147V44.112C198.147 44.4492 197.874 44.7225 197.536 44.7225H195.205Z" fill="url(#paint7_linear_310_522)"></path><path d="M208.858 45.0186C207.599 45.0186 206.551 44.8829 205.712 44.6115C204.898 44.3154 204.281 43.7603 203.862 42.9461C203.467 42.1319 203.269 40.9106 203.269 39.2822V30.6962C203.269 28.9198 203.714 27.7109 204.602 27.0694C205.49 26.4033 206.872 26.0702 208.747 26.0702C210.622 26.0702 212.003 26.4033 212.892 27.0694C213.78 27.7109 214.224 28.9198 214.224 30.6962V34.9709C214.224 35.3081 213.951 35.5814 213.614 35.5814H207.359C207.022 35.5814 206.748 35.8547 206.748 36.1919V40.6516C206.748 41.5644 206.884 42.2059 207.155 42.576C207.451 42.9461 208.007 43.1311 208.821 43.1311C209.561 43.1311 210.067 42.9584 210.338 42.613C210.609 42.2429 210.745 41.5891 210.745 40.6516V38.5604C210.745 38.2233 211.019 37.9499 211.356 37.9499H213.614C213.951 37.9499 214.224 38.2233 214.224 38.5604V39.2452C214.224 40.8489 214.014 42.0702 213.595 42.9091C213.2 43.7479 212.608 44.3154 211.818 44.6115C211.029 44.8829 210.042 45.0186 208.858 45.0186ZM206.748 33.3425C206.748 33.6797 207.022 33.953 207.359 33.953H210.135C210.472 33.953 210.745 33.6797 210.745 33.3425V30.5482C210.745 29.7094 210.609 29.1049 210.338 28.7348C210.067 28.3647 209.536 28.1797 208.747 28.1797C207.982 28.1797 207.451 28.3647 207.155 28.7348C206.884 29.1049 206.748 29.7094 206.748 30.5482V33.3425Z" fill="url(#paint8_linear_310_522)"></path><path d="M217.399 44.7225C216.967 44.7225 216.672 44.2856 216.833 43.8845L220.345 35.1373L217.461 27.2228C217.316 26.8245 217.611 26.4033 218.035 26.4033H220.027C220.284 26.4033 220.514 26.5648 220.601 26.8071L222.64 32.4727L224.964 26.7829C225.058 26.5533 225.281 26.4033 225.529 26.4033H227.439C227.87 26.4033 228.166 26.8388 228.006 27.2396L224.86 35.1373L228.141 43.8979C228.291 44.297 227.996 44.7225 227.569 44.7225H225.543C225.288 44.7225 225.06 44.5645 224.971 44.326L222.64 38.098L220.093 44.3425C219.999 44.5723 219.776 44.7225 219.528 44.7225H217.399Z" fill="url(#paint9_linear_310_522)"></path><path fill-rule="evenodd" clip-rule="evenodd" d="M39.2631 57.1732C38.0542 57.3525 36.8151 57.4456 35.5532 57.4456C22.4059 57.4456 11.748 47.3413 11.748 34.8771C11.748 22.4128 22.4059 12.3085 35.5532 12.3085C36.8151 12.3085 38.0542 12.4016 39.2631 12.581C27.8779 14.2701 19.1678 23.6092 19.1678 34.8771C19.1678 46.1449 27.8779 55.4841 39.2631 57.1732Z" fill="url(#paint10_linear_310_522)"></path><path fill-rule="evenodd" clip-rule="evenodd" d="M39.2631 57.1732C38.0542 57.3525 36.8151 57.4456 35.5532 57.4456C22.4059 57.4456 11.748 47.3413 11.748 34.8771C11.748 22.4128 22.4059 12.3085 35.5532 12.3085C36.8151 12.3085 38.0542 12.4016 39.2631 12.581C27.8779 14.2701 19.1678 23.6092 19.1678 34.8771C19.1678 46.1449 27.8779 55.4841 39.2631 57.1732Z" fill="url(#paint11_linear_310_522)" fill-opacity="0.5"></path><path fill-rule="evenodd" clip-rule="evenodd" d="M39.2631 57.1732C38.0542 57.3525 36.8151 57.4456 35.5532 57.4456C22.4059 57.4456 11.748 47.3413 11.748 34.8771C11.748 22.4128 22.4059 12.3085 35.5532 12.3085C36.8151 12.3085 38.0542 12.4016 39.2631 12.581C27.8779 14.2701 19.1678 23.6092 19.1678 34.8771C19.1678 46.1449 27.8779 55.4841 39.2631 57.1732Z" fill="url(#paint12_radial_310_522)" fill-opacity="0.8" style="mix-blend-mode: overlay;"></path><path fill-rule="evenodd" clip-rule="evenodd" d="M39.2631 57.1732C38.0542 57.3525 36.8151 57.4456 35.5532 57.4456C22.4059 57.4456 11.748 47.3413 11.748 34.8771C11.748 22.4128 22.4059 12.3085 35.5532 12.3085C36.8151 12.3085 38.0542 12.4016 39.2631 12.581C27.8779 14.2701 19.1678 23.6092 19.1678 34.8771C19.1678 46.1449 27.8779 55.4841 39.2631 57.1732Z" fill="#0256B0" fill-opacity="0.2"></path><path d="M31.5341 0.560547C14.1183 0.560547 0 15.7862 0 34.5679C0 53.3497 14.1183 68.5753 31.5341 68.5753C40.2224 68.5753 48.09 64.7861 53.7934 58.6564V58.6822H60.3063C56.3103 63.9719 50.736 67.1725 47.393 68.43C47.2656 68.4798 47.138 68.5263 47.01 68.5693C47.2096 68.5733 47.4097 68.5753 47.6103 68.5753C56.2863 68.5753 63.5934 65.8404 69.8455 58.6822C72.2735 55.9025 74.8162 50.6441 74.8162 50.6441H59.3292H53.7934H50.6257C46.2694 56.6652 39.4758 60.5372 31.8433 60.5372C18.696 60.5372 8.03811 49.0488 8.03811 34.8771C8.03811 20.7054 18.696 9.21697 31.8433 9.21697C39.4758 9.21697 46.2694 13.0889 50.6257 19.11H53.848H59.6298H74.8162C74.8162 19.11 72.2801 13.8517 69.8585 11.0719C63.6225 3.9138 56.3344 1.17886 47.6809 1.17886C47.4809 1.17886 47.2813 1.18088 47.0822 1.1849C47.2098 1.22789 47.3371 1.27438 47.4641 1.3242C50.7985 2.58167 56.3583 5.78224 60.344 11.0719H54.3315C48.5901 4.59489 40.499 0.560547 31.5341 0.560547Z" fill="url(#paint13_linear_310_522)"></path><path d="M31.5341 0.560547C14.1183 0.560547 0 15.7862 0 34.5679C0 53.3497 14.1183 68.5753 31.5341 68.5753C40.2224 68.5753 48.09 64.7861 53.7934 58.6564V58.6822H60.3063C56.3103 63.9719 50.736 67.1725 47.393 68.43C47.2656 68.4798 47.138 68.5263 47.01 68.5693C47.2096 68.5733 47.4097 68.5753 47.6103 68.5753C56.2863 68.5753 63.5934 65.8404 69.8455 58.6822C72.2735 55.9025 74.8162 50.6441 74.8162 50.6441H59.3292H53.7934H50.6257C46.2694 56.6652 39.4758 60.5372 31.8433 60.5372C18.696 60.5372 8.03811 49.0488 8.03811 34.8771C8.03811 20.7054 18.696 9.21697 31.8433 9.21697C39.4758 9.21697 46.2694 13.0889 50.6257 19.11H53.848H59.6298H74.8162C74.8162 19.11 72.2801 13.8517 69.8585 11.0719C63.6225 3.9138 56.3344 1.17886 47.6809 1.17886C47.4809 1.17886 47.2813 1.18088 47.0822 1.1849C47.2098 1.22789 47.3371 1.27438 47.4641 1.3242C50.7985 2.58167 56.3583 5.78224 60.344 11.0719H54.3315C48.5901 4.59489 40.499 0.560547 31.5341 0.560547Z" fill="url(#paint14_linear_310_522)" fill-opacity="0.5"></path><path d="M31.5341 0.560547C14.1183 0.560547 0 15.7862 0 34.5679C0 53.3497 14.1183 68.5753 31.5341 68.5753C40.2224 68.5753 48.09 64.7861 53.7934 58.6564V58.6822H60.3063C56.3103 63.9719 50.736 67.1725 47.393 68.43C47.2656 68.4798 47.138 68.5263 47.01 68.5693C47.2096 68.5733 47.4097 68.5753 47.6103 68.5753C56.2863 68.5753 63.5934 65.8404 69.8455 58.6822C72.2735 55.9025 74.8162 50.6441 74.8162 50.6441H59.3292H53.7934H50.6257C46.2694 56.6652 39.4758 60.5372 31.8433 60.5372C18.696 60.5372 8.03811 49.0488 8.03811 34.8771C8.03811 20.7054 18.696 9.21697 31.8433 9.21697C39.4758 9.21697 46.2694 13.0889 50.6257 19.11H53.848H59.6298H74.8162C74.8162 19.11 72.2801 13.8517 69.8585 11.0719C63.6225 3.9138 56.3344 1.17886 47.6809 1.17886C47.4809 1.17886 47.2813 1.18088 47.0822 1.1849C47.2098 1.22789 47.3371 1.27438 47.4641 1.3242C50.7985 2.58167 56.3583 5.78224 60.344 11.0719H54.3315C48.5901 4.59489 40.499 0.560547 31.5341 0.560547Z" fill="url(#paint15_radial_310_522)" fill-opacity="0.8" style="mix-blend-mode: overlay;"></path><path d="M31.5341 0.560547C14.1183 0.560547 0 15.7862 0 34.5679C0 53.3497 14.1183 68.5753 31.5341 68.5753C40.2224 68.5753 48.09 64.7861 53.7934 58.6564V58.6822H60.3063C56.3103 63.9719 50.736 67.1725 47.393 68.43C47.2656 68.4798 47.138 68.5263 47.01 68.5693C47.2096 68.5733 47.4097 68.5753 47.6103 68.5753C56.2863 68.5753 63.5934 65.8404 69.8455 58.6822C72.2735 55.9025 74.8162 50.6441 74.8162 50.6441H59.3292H53.7934H50.6257C46.2694 56.6652 39.4758 60.5372 31.8433 60.5372C18.696 60.5372 8.03811 49.0488 8.03811 34.8771C8.03811 20.7054 18.696 9.21697 31.8433 9.21697C39.4758 9.21697 46.2694 13.0889 50.6257 19.11H53.848H59.6298H74.8162C74.8162 19.11 72.2801 13.8517 69.8585 11.0719C63.6225 3.9138 56.3344 1.17886 47.6809 1.17886C47.4809 1.17886 47.2813 1.18088 47.0822 1.1849C47.2098 1.22789 47.3371 1.27438 47.4641 1.3242C50.7985 2.58167 56.3583 5.78224 60.344 11.0719H54.3315C48.5901 4.59489 40.499 0.560547 31.5341 0.560547Z" fill="#0256B0" fill-opacity="0.2"></path><path d="M50.7888 47.0297C48.4931 47.0297 46.2914 46.1177 44.6681 44.4944C43.0448 42.8711 42.1329 40.6694 42.1329 38.3738C42.1329 32.6031 50.7888 22.8652 50.7888 22.8652C50.7888 22.8652 59.4447 32.6031 59.4447 38.3738C59.4447 40.6694 58.5327 42.8711 56.9094 44.4944C55.2861 46.1177 53.0845 47.0297 50.7888 47.0297Z" fill="url(#paint16_linear_310_522)"></path><path d="M50.7888 47.0297C48.4931 47.0297 46.2914 46.1177 44.6681 44.4944C43.0448 42.8711 42.1329 40.6694 42.1329 38.3738C42.1329 32.6031 50.7888 22.8652 50.7888 22.8652C50.7888 22.8652 59.4447 32.6031 59.4447 38.3738C59.4447 40.6694 58.5327 42.8711 56.9094 44.4944C55.2861 46.1177 53.0845 47.0297 50.7888 47.0297Z" fill="url(#paint17_radial_310_522)" fill-opacity="0.8" style="mix-blend-mode: overlay;"></path><defs><linearGradient id="paint0_linear_310_522" x1="158.042" y1="21" x2="158.042" y2="49.0155" gradientUnits="userSpaceOnUse"><stop stop-color="#77BDD9"></stop><stop offset="0.559185" stop-color="#0887C9"></stop><stop offset="1" stop-color="#0256B0"></stop></linearGradient><linearGradient id="paint1_linear_310_522" x1="158.042" y1="21" x2="158.042" y2="49.0155" gradientUnits="userSpaceOnUse"><stop stop-color="#77BDD9"></stop><stop offset="0.559185" stop-color="#0887C9"></stop><stop offset="1" stop-color="#0256B0"></stop></linearGradient><linearGradient id="paint2_linear_310_522" x1="158.042" y1="21" x2="158.042" y2="49.0155" gradientUnits="userSpaceOnUse"><stop stop-color="#77BDD9"></stop><stop offset="0.559185" stop-color="#0887C9"></stop><stop offset="1" stop-color="#0256B0"></stop></linearGradient><linearGradient id="paint3_linear_310_522" x1="158.042" y1="21" x2="158.042" y2="49.0155" gradientUnits="userSpaceOnUse"><stop stop-color="#77BDD9"></stop><stop offset="0.559185" stop-color="#0887C9"></stop><stop offset="1" stop-color="#0256B0"></stop></linearGradient><linearGradient id="paint4_linear_310_522" x1="158.042" y1="21" x2="158.042" y2="49.0155" gradientUnits="userSpaceOnUse"><stop stop-color="#77BDD9"></stop><stop offset="0.559185" stop-color="#0887C9"></stop><stop offset="1" stop-color="#0256B0"></stop></linearGradient><linearGradient id="paint5_linear_310_522" x1="158.042" y1="21" x2="158.042" y2="49.0155" gradientUnits="userSpaceOnUse"><stop stop-color="#77BDD9"></stop><stop offset="0.559185" stop-color="#0887C9"></stop><stop offset="1" stop-color="#0256B0"></stop></linearGradient><linearGradient id="paint6_linear_310_522" x1="158.042" y1="21" x2="158.042" y2="49.0155" gradientUnits="userSpaceOnUse"><stop stop-color="#77BDD9"></stop><stop offset="0.559185" stop-color="#0887C9"></stop><stop offset="1" stop-color="#0256B0"></stop></linearGradient><linearGradient id="paint7_linear_310_522" x1="158.042" y1="21" x2="158.042" y2="49.0155" gradientUnits="userSpaceOnUse"><stop stop-color="#77BDD9"></stop><stop offset="0.559185" stop-color="#0887C9"></stop><stop offset="1" stop-color="#0256B0"></stop></linearGradient><linearGradient id="paint8_linear_310_522" x1="158.042" y1="21" x2="158.042" y2="49.0155" gradientUnits="userSpaceOnUse"><stop stop-color="#77BDD9"></stop><stop offset="0.559185" stop-color="#0887C9"></stop><stop offset="1" stop-color="#0256B0"></stop></linearGradient><linearGradient id="paint9_linear_310_522" x1="158.042" y1="21" x2="158.042" y2="49.0155" gradientUnits="userSpaceOnUse"><stop stop-color="#77BDD9"></stop><stop offset="0.559185" stop-color="#0887C9"></stop><stop offset="1" stop-color="#0256B0"></stop></linearGradient><linearGradient id="paint10_linear_310_522" x1="1.85512e-09" y1="53.34" x2="76.4811" y2="42.4295" gradientUnits="userSpaceOnUse"><stop stop-color="#576265"></stop><stop offset="0.140625" stop-color="#A5A9A9"></stop><stop offset="0.440375" stop-color="#848B8A"></stop><stop offset="0.557292" stop-color="#7F898C"></stop><stop offset="0.891945" stop-color="#757A7B"></stop><stop offset="1" stop-color="#717E82"></stop></linearGradient><linearGradient id="paint11_linear_310_522" x1="0" y1="0.560547" x2="74.8162" y2="68.5753" gradientUnits="userSpaceOnUse"><stop offset="0.12902" stop-color="#F6F6F6"></stop><stop offset="0.379514" stop-color="#E3E4E8"></stop></linearGradient><radialGradient id="paint12_radial_310_522" cx="0" cy="0" r="1" gradientUnits="userSpaceOnUse" gradientTransform="translate(7.45453 7.35051) rotate(57.8417) scale(52.235 73.9719)"><stop offset="0.146594" stop-color="white"></stop><stop offset="1" stop-color="white" stop-opacity="0"></stop></radialGradient><linearGradient id="paint13_linear_310_522" x1="1.85512e-09" y1="53.34" x2="76.4811" y2="42.4295" gradientUnits="userSpaceOnUse"><stop stop-color="#576265"></stop><stop offset="0.140625" stop-color="#A5A9A9"></stop><stop offset="0.440375" stop-color="#848B8A"></stop><stop offset="0.557292" stop-color="#7F898C"></stop><stop offset="0.891945" stop-color="#757A7B"></stop><stop offset="1" stop-color="#717E82"></stop></linearGradient><linearGradient id="paint14_linear_310_522" x1="0" y1="0.560547" x2="74.8162" y2="68.5753" gradientUnits="userSpaceOnUse"><stop offset="0.12902" stop-color="#F6F6F6"></stop><stop offset="0.379514" stop-color="#E3E4E8"></stop></linearGradient><radialGradient id="paint15_radial_310_522" cx="0" cy="0" r="1" gradientUnits="userSpaceOnUse" gradientTransform="translate(7.45453 7.35051) rotate(57.8417) scale(52.235 73.9719)"><stop offset="0.146594" stop-color="white"></stop><stop offset="1" stop-color="white" stop-opacity="0"></stop></radialGradient><linearGradient id="paint16_linear_310_522" x1="50.7888" y1="22.8652" x2="50.7888" y2="47.0297" gradientUnits="userSpaceOnUse"><stop stop-color="#77BDD9"></stop><stop offset="0.559185" stop-color="#0887C9"></stop><stop offset="1" stop-color="#0256B0"></stop></linearGradient><radialGradient id="paint17_radial_310_522" cx="0" cy="0" r="1" gradientUnits="userSpaceOnUse" gradientTransform="translate(43.4039 25.5835) rotate(57.1764) scale(13.6239 14.7539)"><stop stop-color="white"></stop><stop offset="1" stop-color="white" stop-opacity="0"></stop></radialGradient></defs></svg>