<svg width="1.1875em" height="1.75em" viewBox="0 0 19 28" fill="none" xmlns="http://www.w3.org/2000/svg"><path d="M9.49999 13.3334C8.61593 13.3334 7.76809 12.9822 7.14297 12.357C6.51785 11.7319 6.16666 10.8841 6.16666 10C6.16666 9.11596 6.51785 8.26812 7.14297 7.643C7.76809 7.01788 8.61593 6.66669 9.49999 6.66669C10.384 6.66669 11.2319 7.01788 11.857 7.643C12.4821 8.26812 12.8333 9.11596 12.8333 10C12.8333 10.4378 12.7471 10.8712 12.5796 11.2756C12.4121 11.68 12.1665 12.0475 11.857 12.357C11.5475 12.6666 11.18 12.9121 10.7756 13.0796C10.3712 13.2471 9.93773 13.3334 9.49999 13.3334ZM9.49999 0.666687C7.02464 0.666687 4.65067 1.65002 2.90033 3.40036C1.14999 5.1507 0.166656 7.52467 0.166656 10C0.166656 17 9.49999 27.3334 9.49999 27.3334C9.49999 27.3334 18.8333 17 18.8333 10C18.8333 7.52467 17.85 5.1507 16.0997 3.40036C14.3493 1.65002 11.9753 0.666687 9.49999 0.666687Z" fill="#0256b0"></path></svg>