<svg width="49" height="46" viewBox="0 0 49 46" fill="none" xmlns="http://www.w3.org/2000/svg"><path fill-rule="evenodd" clip-rule="evenodd" d="M25.4615 37.512C24.6776 37.6283 23.8741 37.6887 23.0557 37.6887C14.5299 37.6887 7.61841 31.1362 7.61841 23.0533C7.61841 14.9704 14.5299 8.41797 23.0557 8.41797C23.8741 8.41797 24.6776 8.47834 25.4615 8.59465C18.0784 9.68999 12.43 15.7463 12.43 23.0533C12.43 30.3604 18.0784 36.4167 25.4615 37.512Z" fill="#E3E4E8"></path><path d="M20.4494 0.799561C9.15551 0.799561 0 10.6732 0 22.8529C0 35.0326 9.15551 44.9061 20.4494 44.9061C26.0836 44.9061 31.1856 42.4489 34.8843 38.4739V38.4906H39.1078C36.5164 41.9209 32.9016 43.9964 30.7336 44.8119C30.6511 44.8442 30.5683 44.8744 30.4853 44.9022C30.6148 44.9048 30.7445 44.9061 30.8746 44.9061C36.5009 44.9061 41.2394 43.1326 45.2938 38.4906C46.8683 36.688 48.5172 33.278 48.5172 33.278H38.4741H34.8843H32.83C30.005 37.1826 25.5995 39.6935 20.6499 39.6935C12.1241 39.6935 5.2126 32.2435 5.2126 23.0533C5.2126 13.8632 12.1241 6.41313 20.6499 6.41313C25.5995 6.41313 30.005 8.92404 32.83 12.8286H34.9197H38.6691H48.5172C48.5172 12.8286 46.8726 9.41866 45.3022 7.61603C41.2583 2.9741 36.5321 1.20053 30.9204 1.20053C30.7907 1.20053 30.6612 1.20184 30.5321 1.20445C30.6149 1.23232 30.6974 1.26247 30.7798 1.29478C32.9421 2.11023 36.5476 4.18575 39.1322 7.61603H35.2332C31.5099 3.41577 26.263 0.799561 20.4494 0.799561Z" fill="#E3E4E8"></path><path d="M32.517 30.8C31.0472 30.8 29.6376 30.2112 28.5983 29.1632C27.559 28.1153 26.9751 26.6939 26.9751 25.2119C26.9751 21.4865 32.517 15.2 32.517 15.2C32.517 15.2 38.0589 21.4865 38.0589 25.2119C38.0589 26.6939 37.475 28.1153 36.4357 29.1632C35.3964 30.2112 33.9868 30.8 32.517 30.8Z" fill="#E3E4E8"></path></svg>