<svg width="1.5em" height="1.5em" viewBox="0 0 24 24" fill="none" xmlns="http://www.w3.org/2000/svg"><path fill-rule="evenodd" clip-rule="evenodd" d="M20.5025 3.49206C19.3967 2.38099 18.0796 1.50002 16.6282 0.900499C15.1767 0.300975 13.6198 -0.0051158 12.0482 6.46741e-05C5.46332 6.46741e-05 0.0964826 5.34006 0.0964826 11.8921C0.0964826 13.9921 0.651256 16.0321 1.68844 17.8321L0 24.0001L6.33166 22.3441C8.0804 23.2921 10.0462 23.7961 12.0482 23.7961C18.6332 23.7961 24 18.4561 24 11.9041C24 8.72406 22.7578 5.73606 20.5025 3.49206ZM15.4613 13.4161C15.7266 13.5241 17.198 14.2441 17.4995 14.3881C17.801 14.5321 17.9819 14.5921 18.0663 14.7241C18.1508 14.8561 18.1508 15.4441 17.8975 16.1401C17.6563 16.8361 16.4623 17.4721 15.8834 17.5561C15.3648 17.6281 14.7136 17.6641 14.002 17.4361C13.5678 17.3041 13.0131 17.1241 12.3015 16.8121C9.31055 15.5281 7.34472 12.5281 7.2 12.3241L7.19765 12.3209C7.04407 12.1172 5.98191 10.7084 5.98191 9.25206C5.98191 7.78806 6.75377 7.06806 7.01909 6.76806C7.29648 6.46806 7.61005 6.39606 7.81507 6.39606H8.39397C8.57487 6.40806 8.82814 6.33606 9.06935 6.91206C9.31055 7.51206 9.91357 8.97606 9.98593 9.12006C10.0583 9.26406 10.1065 9.43206 10.0101 9.63606C9.91357 9.82806 9.85327 9.96006 9.70854 10.1281C9.56382 10.2961 9.39497 10.5121 9.26231 10.6441C9.10553 10.8001 8.9608 10.9561 9.12965 11.2561C9.31055 11.5561 9.90151 12.5281 10.794 13.3201C11.9276 14.3281 12.8925 14.6521 13.194 14.7961C13.4955 14.9521 13.6764 14.9281 13.8452 14.7241C14.0141 14.5321 14.5809 13.8601 14.7859 13.5601C14.991 13.2721 15.1839 13.3201 15.4613 13.4161Z" fill="#fff"></path></svg>