<svg width="175" height="30" viewBox="0 0 175 30" fill="none" xmlns="http://www.w3.org/2000/svg"><g clip-path="url(#clip0_875_269)"><path d="M107.7 20.7693L105.019 28.7501L102.339 20.7693H101.094L104.253 30.0001H105.689L108.944 20.7693H107.7Z" fill="#0066B3"/><path d="M112.486 20.7693V30.0001H118.805V28.9424H113.731V25.7693H118.422V24.7116H113.731V21.827H118.805V20.7693H112.486Z" fill="#0066B3"/><mask id="mask0_875_269" style="mask-type: luminance;" maskUnits="userSpaceOnUse" x="0" y="0" width="175" height="30"><path d="M175 0H0V30H175V0Z" fill="white"/></mask><g mask="url(#mask0_875_269)"><path d="M122.921 20.7693H127.229C128.952 20.7693 130.005 21.7308 130.005 23.1731C130.101 24.2308 129.431 25.1924 128.378 25.4808C129.431 25.6731 129.623 26.4424 129.718 27.4039C129.623 28.2693 129.814 29.1347 130.293 29.9039H128.952C128.569 29.5193 128.761 28.5577 128.569 27.5962C128.378 26.6347 128.187 25.9616 127.038 25.9616H124.07V29.9039H122.826L122.921 20.7693ZM126.655 25.0001C127.804 25.0001 128.761 24.7116 128.761 23.3654C128.857 22.5962 128.282 21.827 127.421 21.827C127.325 21.827 127.229 21.827 127.133 21.827H124.07V25.0001H126.655Z" fill="#0066B3"/><path d="M134.218 20.7692H137.568C138.43 20.6731 139.196 20.7692 139.962 21.0577C140.632 21.4423 141.015 22.2115 141.015 22.9807C141.015 23.8461 140.536 24.7115 139.674 25C140.728 25.1923 141.493 26.1538 141.398 27.2115C141.398 28.6538 140.249 29.8077 138.813 29.9038C138.717 29.9038 138.621 29.9038 138.621 29.9038H134.218V20.7692ZM135.462 24.7115H137.856C139.196 24.7115 139.77 24.2308 139.77 23.2692C139.77 22.0192 138.909 21.8269 137.856 21.8269H135.367L135.462 24.7115ZM135.462 28.9423H138.526C139.387 29.0384 140.153 28.3654 140.249 27.5C140.249 27.4038 140.249 27.3077 140.249 27.3077C140.249 26.1538 139.292 25.7692 138.238 25.7692H135.462V28.9423Z" fill="#0066B3"/><path d="M147.812 20.7693H149.152L152.694 30.0001H151.354L150.301 27.2116H146.472L145.418 30.0001H144.174L147.812 20.7693ZM146.854 26.1539H149.918L148.386 21.827L146.854 26.1539Z" fill="#0066B3"/><path d="M155.949 20.7693H157.194L161.98 28.2693H162.076V20.7693H163.225V30.0001H161.885L157.098 22.5962V30.0001H155.949V20.7693Z" fill="#0066B3"/></g><mask id="mask1_875_269" style="mask-type: luminance;" maskUnits="userSpaceOnUse" x="0" y="0" width="175" height="30"><path d="M175 0H0V30H175V0Z" fill="white"/></mask><g mask="url(#mask1_875_269)"><path d="M167.533 20.7693H170.692C173.564 20.7693 175.096 22.2116 175.096 25.1924C175.096 28.1731 173.755 30.0001 170.692 30.0001H167.533V20.7693ZM168.777 28.9424H170.788C171.649 28.9424 173.851 28.7501 173.851 25.2885C173.851 23.077 173.085 21.827 170.788 21.827H168.777V28.9424Z" fill="#0066B3"/><path d="M23.7418 0H0V30H40.3036L23.7418 0Z" fill="#67B4E5"/></g><mask id="mask2_875_269" style="mask-type: luminance;" maskUnits="userSpaceOnUse" x="0" y="0" width="175" height="30"><path d="M175 0H0V30H175V0Z" fill="white"/></mask><g mask="url(#mask2_875_269)"><path d="M71.1296 0H25.8479L42.314 30H54.6635L71.1296 0Z" fill="#0066B3"/><path d="M107.412 0H73.14L56.674 30H91.0421L107.412 0Z" fill="#009BDB"/><path d="M47.1964 22.4039H49.6854L57.9185 7.59619H55.7166L48.4409 20.577L41.2609 7.59619H38.9633L47.1964 22.4039Z" fill="white"/><path d="M78.884 14.0385C75.8205 14.0385 75.2461 13.4616 75.1504 11.7308C75.1504 9.42311 76.5864 9.13465 80.4157 9.13465H90.0848V7.59619H79.4584C75.3419 7.59619 73.3315 8.36542 73.3315 11.6347V11.7308C73.3315 15.577 75.4376 15.9616 81.4688 15.9616H85.2981C87.7872 15.9616 88.553 16.4423 88.553 18.1731V18.2693C88.553 20.2885 87.5957 20.8654 84.7237 20.8654H73.3315V22.5H84.4365C87.4042 22.5 90.372 22.2116 90.372 18.5577V17.6923C90.372 15.1923 88.6488 14.1347 84.8194 14.1347L78.884 14.0385Z" fill="white"/><path fill-rule="evenodd" clip-rule="evenodd" d="M22.3058 15.7693C22.3058 20.1923 20.5826 20.7693 18.1893 20.7693H7.94582V9.23081H18.4765C20.9655 9.23081 22.3058 10 22.3058 14.327V15.7693ZM5.93542 22.4039H17.9021C22.9759 22.4039 24.3162 20.4808 24.3162 15C24.3162 9.13465 22.9759 7.59619 17.9978 7.59619H5.93542V22.4039Z" fill="white"/></g></g><defs><clipPath id="clip0_875_269"><rect width="175" height="30" fill="white"/></clipPath></defs></svg>
