<svg width="2.25em" height="1.875em" viewBox="0 0 36 30" fill="none" xmlns="http://www.w3.org/2000/svg"><path fill-rule="evenodd" clip-rule="evenodd" d="M16.4279 0.0184199C14.5185 0.159554 12.578 0.691321 10.8611 1.54382C10.1181 1.91274 9.85709 2.06344 9.16459 2.52328C7.88573 3.3725 6.59494 4.58151 5.63782 5.82656C5.41423 6.1174 4.92346 6.81893 4.92346 6.84766C4.92346 6.85951 5.05271 6.86911 5.21066 6.86904L5.49786 6.86894L5.73235 6.54633C6.12898 6.00066 6.65507 5.38694 7.18778 4.84845C7.71906 4.31139 8.37197 3.73639 8.48475 3.70624C8.5287 3.69445 8.679 3.76668 8.93981 3.92482C9.15398 4.0547 9.48264 4.24287 9.67013 4.34293C9.89802 4.46457 10.011 4.54351 10.011 4.58108C10.011 4.61196 9.91298 4.7559 9.79315 4.90091C9.49334 5.26368 9.14131 5.73616 8.90623 6.09135C8.70529 6.39496 8.43552 6.84878 8.43552 6.88321C8.43552 6.8937 8.55762 6.90227 8.70683 6.90227H8.97815L9.28107 6.46371C9.75418 5.77873 10.5013 4.85821 10.5888 4.85249C10.6087 4.8512 10.8967 4.95294 11.2288 5.07855C11.561 5.2042 12.106 5.40011 12.4399 5.5139C12.7739 5.62773 13.0584 5.73064 13.0721 5.74262C13.1054 5.77161 13.0051 6.05312 12.8241 6.43889C12.5901 6.93726 12.5838 6.90227 12.9086 6.90227H13.1848L13.4092 6.42134C13.5327 6.15682 13.651 5.92585 13.6722 5.90808C13.6978 5.88673 13.8151 5.89739 14.019 5.93956C14.76 6.0928 15.8874 6.23146 16.6413 6.26197C17.1954 6.28441 17.199 6.28653 17.1998 6.58588C17.2001 6.6962 17.2111 6.8034 17.2244 6.82416C17.2474 6.8602 17.4751 6.88615 17.667 6.8746C17.7552 6.8693 17.7573 6.86447 17.7577 6.6623C17.7585 6.30745 17.7492 6.31708 18.113 6.29249C19.1149 6.22477 19.9931 6.11577 20.6894 5.97269C21.013 5.90622 21.1892 5.88349 21.2146 5.90493C21.2357 5.92271 21.3559 6.14692 21.4817 6.40321L21.7106 6.86917H21.9845C22.3055 6.86917 22.2981 6.91329 22.0655 6.38924C21.9333 6.09151 21.8072 5.71478 21.8336 5.69658C21.8392 5.69274 21.984 5.64749 22.1555 5.59602C22.4995 5.49282 23.3043 5.20469 23.9066 4.96913C24.1205 4.88549 24.3145 4.81704 24.3376 4.81704C24.4414 4.81704 25.1239 5.63879 25.662 6.41178C25.9392 6.80993 25.9933 6.8705 26.0891 6.88926C26.1988 6.91078 26.5148 6.88645 26.5469 6.85405C26.5649 6.83597 25.8521 5.73636 25.7644 5.64683C25.7364 5.61826 25.6862 5.55018 25.6527 5.49557C25.5846 5.38422 25.4708 5.242 25.2136 4.94655C25.0328 4.73879 24.9407 4.57015 24.9685 4.49724C24.9773 4.4742 25.1271 4.37791 25.3014 4.28328C25.4757 4.18865 25.7835 4.00936 25.9854 3.88491C26.1873 3.76042 26.3747 3.65858 26.4018 3.65858C26.4855 3.65858 27.1677 4.24251 27.715 4.78268C28.2758 5.33616 28.8093 5.95571 29.1887 6.4941C29.4461 6.85938 29.4623 6.86964 29.7828 6.86868C30.0572 6.86785 30.0664 6.84213 29.8843 6.5827C29.1349 5.51473 28.2698 4.53881 27.3495 3.72305C24.9834 1.6258 22.0453 0.357883 18.8404 0.0509562C18.3273 0.00180425 16.9109 -0.0172938 16.4279 0.0184199ZM19.0702 0.594242C19.4909 0.644321 20.0503 0.736104 20.4139 0.814714C20.5562 0.845496 20.58 0.861781 20.58 0.92831C20.58 1.07083 19.9242 1.43092 19.2935 1.63464C17.6565 2.16343 15.7873 1.96712 14.4996 1.13114C14.3585 1.03956 14.3108 0.989146 14.3108 0.931454C14.3108 0.860589 14.337 0.848641 14.6309 0.78562C15.0099 0.704329 15.7973 0.591495 16.2802 0.549327C16.8008 0.503849 18.5466 0.531983 19.0702 0.594242ZM21.9258 1.22686C23.0208 1.55047 24.2218 2.12934 25.364 2.88393C25.7022 3.10738 25.8317 3.21091 25.8317 3.25778C25.8317 3.30716 25.6816 3.4098 25.2006 3.68916C24.8535 3.8908 24.5345 4.05576 24.4917 4.05576C24.4376 4.05576 24.3021 3.94832 24.0478 3.70366C23.2907 2.97531 22.3886 2.26703 21.5578 1.74873C21.1973 1.52379 21.1052 1.45147 21.1052 1.39322C21.1052 1.28627 21.3673 1.06855 21.4663 1.09331C21.4933 1.10006 21.7001 1.16017 21.9258 1.22686ZM13.6918 1.23259C13.9123 1.40212 13.905 1.46461 13.6462 1.62431C12.6975 2.20977 11.7401 2.94503 10.848 3.77336C10.5364 4.06271 10.475 4.10614 10.3998 4.09048C10.2782 4.06516 9.09828 3.3919 9.07688 3.33563C9.04406 3.24937 9.12582 3.16451 9.44535 2.95337C10.4176 2.31085 11.2983 1.86253 12.419 1.43962C12.7103 1.32967 12.9782 1.22511 13.0143 1.20727C13.0868 1.17139 13.3315 1.11922 13.4539 1.1136C13.4981 1.11155 13.602 1.16348 13.6918 1.23259ZM20.7858 1.92154C21.3672 2.21758 22.4148 2.95003 23.0582 3.51026C23.4992 3.89431 23.8623 4.2622 23.8623 4.32496C23.8623 4.46847 21.6021 5.2651 21.4966 5.15872C21.4807 5.14273 21.3471 4.92153 21.1997 4.6672C20.8457 4.05652 20.2878 3.18463 19.9021 2.63966C19.731 2.39784 19.5956 2.17604 19.6014 2.14675C19.6077 2.11415 19.7648 2.02666 20.0056 1.92148C20.4447 1.7297 20.409 1.7297 20.7858 1.92154ZM14.9017 1.93717C15.2576 2.09131 15.2789 2.1059 15.2752 2.19282C15.2727 2.25137 15.1897 2.39357 15.0478 2.58286C14.7133 3.0287 14.1959 3.83476 13.8261 4.48605C13.4376 5.17054 13.395 5.22449 13.2691 5.19308C13.0595 5.14078 12.2617 4.88022 11.8685 4.73565C11.2234 4.49843 11.0942 4.43501 11.0942 4.35544C11.0942 4.19531 12.4068 3.08275 13.3097 2.47764C13.8674 2.10388 14.4196 1.77511 14.4914 1.77412C14.5094 1.77389 14.6941 1.84724 14.9017 1.93717ZM16.6795 2.42147L17.1607 2.47952L17.18 2.5767C17.1906 2.63016 17.1993 3.35718 17.1993 4.1923V5.71071L17.0269 5.7164C16.3485 5.73888 14.9907 5.59811 14.252 5.42867C14.0291 5.37754 14.0154 5.36916 14.0154 5.2837C14.0154 5.06349 15.0408 3.44826 15.748 2.55443C15.9271 2.32813 15.9289 2.32697 16.0631 2.34514C16.1374 2.35517 16.4147 2.38953 16.6795 2.42147ZM19.2427 2.69043C19.5857 3.13376 19.9109 3.59847 20.2138 4.07804C20.4723 4.48734 20.9083 5.2606 20.9083 5.30972C20.9083 5.36883 19.9458 5.56133 19.2507 5.6413C18.776 5.69588 17.8209 5.75284 17.7963 5.72802C17.7838 5.71551 17.7689 4.98518 17.763 4.10508L17.7523 2.50491L17.8943 2.48363C17.9724 2.47194 18.2135 2.4353 18.4301 2.40221C18.6468 2.36914 18.8563 2.34041 18.8957 2.33836C18.9499 2.33554 19.035 2.4219 19.2427 2.69043ZM28.3919 8.19588C27.3698 8.24884 26.3546 8.4852 25.4259 8.88639C24.6408 9.22549 24.2658 9.45953 23.8019 9.89998C22.5308 11.1066 21.9832 12.5912 21.9347 14.9619C21.9224 15.5669 21.9311 15.8657 21.9713 16.2153C22.1874 18.0946 22.9242 19.5181 24.1563 20.4372C25.3654 21.339 26.9261 21.8545 28.6381 21.9174C30.4657 21.9845 32.4559 21.466 33.6429 20.6135C34.0507 20.3205 34.5979 19.768 34.8329 19.4118C35.2279 18.8131 35.6062 17.872 35.79 17.0305C36.1454 15.4035 36.0474 13.6495 35.5134 12.0816C35.2476 11.3009 34.9403 10.7721 34.4499 10.2509C33.3979 9.13321 31.4579 8.31056 29.634 8.20885C28.9975 8.17334 28.8554 8.17185 28.3919 8.19588ZM13.1703 8.24314C11.9102 8.4045 10.8272 8.88973 10.1083 9.61503C9.56457 10.1636 9.23939 10.8707 9.12162 11.7605C9.0669 12.1739 9.10087 13.0045 9.18576 13.3293C9.48999 14.4933 10.4309 15.5033 11.7627 16.0955C11.9585 16.1826 13.0097 16.5204 14.4214 16.9498C15.7055 17.3405 16.8719 17.7069 17.0133 17.764C17.4429 17.9373 17.5911 18.1351 17.4733 18.3781C17.3806 18.5696 17.0679 18.6946 16.4597 18.7832C16.1108 18.8341 15.2497 18.8255 14.9142 18.7677C14.269 18.6568 13.5861 18.4037 13.0712 18.0848C12.7038 17.8572 12.1475 17.3049 11.9677 16.9892L11.8404 16.7658H10.5155H9.19045V19.1985V21.6313H10.6511H12.1117V21.1845C12.1117 20.8749 12.1231 20.7376 12.1487 20.7376C12.1691 20.7376 12.3574 20.8326 12.5672 20.9487C14.2703 21.8913 16.6938 22.1821 18.4301 21.6523C19.5181 21.3204 20.2277 20.8621 20.7611 20.1472C21.6538 18.9504 21.8151 17.3316 21.1704 16.0376C20.9075 15.5098 20.4137 14.9248 19.8743 14.502C19.1453 13.9305 19.0216 13.8821 16.108 13.0277C14.7406 12.6267 13.5488 12.2613 13.4596 12.2157C13.3704 12.1702 13.2589 12.0819 13.2117 12.0196C12.997 11.7357 13.1088 11.4498 13.5071 11.2647C13.6622 11.1926 13.7071 11.1887 14.3601 11.1914C14.9408 11.1938 15.1037 11.2059 15.394 11.2681C16.0644 11.4117 16.4815 11.5541 16.9795 11.8094C17.5082 12.0805 17.9666 12.4608 18.2756 12.8849L18.4264 13.0918H19.7822H21.138V10.8245V8.55722H19.7266H18.3153V8.92131C18.3153 9.27086 18.3125 9.28539 18.2453 9.28539C18.2068 9.28539 18.0026 9.18835 17.7915 9.06972C17.0159 8.63374 16.4394 8.44045 15.4682 8.29067C14.8735 8.19896 13.7044 8.17476 13.1703 8.24314ZM0 9.94737V11.5692H0.968279H1.93656V14.995V18.4207H0.968279H0V20.026V21.6313H4.20135H8.4027V20.026V18.4207H7.43425H6.46584L6.47418 15.0032L6.48255 11.5858L7.46373 11.577L8.44491 11.5682L8.42403 11.3453C8.41254 11.2227 8.40306 10.4931 8.40293 9.72396L8.4027 8.32553H4.20135H0V9.94737ZM29.6961 11.5714C29.8447 11.6058 30.0589 11.681 30.172 11.7386C30.7284 12.0218 30.919 12.3464 31.0833 13.2904C31.2131 14.0365 31.2102 16.0094 31.0778 16.9809C31.0073 17.4981 30.8025 17.9353 30.529 18.1525C30.1117 18.4838 29.3235 18.6662 28.6502 18.5873C28.005 18.5117 27.529 18.289 27.2678 17.9408C27.046 17.6451 26.8827 17.0126 26.813 16.1798C26.7453 15.3716 26.8137 13.4538 26.9305 12.8842C27.0446 12.328 27.3709 11.9031 27.8193 11.7269C28.461 11.4746 29.0624 11.4247 29.6961 11.5714ZM4.97423 23.0851C4.93852 23.1434 5.58937 24.0494 6.11615 24.6747C6.27796 24.8668 6.66314 25.2771 6.97214 25.5866C8.47757 27.0945 10.1001 28.1738 11.9968 28.9289C13.9567 29.7093 15.8285 30.047 17.905 29.9948C19.098 29.9648 20.0729 29.8352 21.1873 29.5585C24.7873 28.6647 27.8464 26.492 29.9655 23.3237C30.1335 23.0724 30.1222 23.0558 29.7816 23.055L29.5465 23.0546L29.3892 23.278C28.9188 23.946 28.3687 24.6005 27.7521 25.2258C27.1547 25.8317 26.6515 26.2652 26.5455 26.2652C26.4374 26.2652 25.0112 25.4351 25.0112 25.3722C25.0112 25.3434 25.1233 25.1863 25.2604 25.023C25.6407 24.5699 26.0347 24.0314 26.3418 23.5451C26.4945 23.3033 26.6195 23.0939 26.6195 23.08C26.6195 23.066 26.4903 23.0548 26.3323 23.055L26.0451 23.0554L25.8903 23.295C25.5592 23.8073 24.5719 25.0729 24.4696 25.1163C24.4515 25.1239 24.1709 25.0277 23.8459 24.9026C23.521 24.7774 22.9671 24.5761 22.6151 24.4553C22.263 24.3345 21.9634 24.2255 21.9492 24.2132C21.9349 24.2008 22.0105 23.9832 22.1171 23.7298C22.2238 23.4763 22.3215 23.2207 22.3344 23.1618L22.3577 23.0546H22.1002H21.8427L21.589 23.5676C21.4494 23.8498 21.3241 24.0806 21.3105 24.0805C21.2969 24.0804 21.0937 24.0424 20.859 23.9961C20.0791 23.8419 19.0113 23.7024 18.3317 23.6657C17.787 23.6363 17.8229 23.656 17.8229 23.3876C17.8229 23.051 17.826 23.0546 17.5242 23.0546H17.2653L17.2733 23.3174C17.2777 23.462 17.2666 23.5948 17.2485 23.6125C17.2305 23.6301 17.0015 23.6608 16.7397 23.6806C16.0262 23.7345 15.1568 23.8404 14.4479 23.9596C14.021 24.0314 13.8058 24.055 13.7874 24.032C13.7724 24.0132 13.6551 23.7856 13.5265 23.5262L13.2929 23.0546H13.0305C12.8862 23.0546 12.7682 23.0676 12.7682 23.0835C12.7682 23.1429 12.8655 23.3868 13.0465 23.7813C13.1491 24.0049 13.2208 24.2001 13.2058 24.2151C13.1907 24.2302 12.8461 24.3539 12.4399 24.4901C12.0337 24.6263 11.4651 24.8345 11.1762 24.9528L10.6511 25.168L10.4439 24.9528C10.1534 24.6512 9.59795 23.9398 9.27917 23.4613L9.00992 23.0572L8.72272 23.0558C8.56478 23.0551 8.43552 23.0622 8.43552 23.0715C8.43552 23.1095 8.82552 23.7221 9.04636 24.031C9.1765 24.213 9.45418 24.5761 9.66343 24.8378C9.93386 25.1761 10.0437 25.3388 10.0434 25.4005C10.043 25.4785 9.97252 25.5286 9.35184 25.8928C8.97175 26.1158 8.63082 26.2982 8.59419 26.2982C8.4155 26.2982 7.03683 24.9904 6.41346 24.2296C6.23447 24.0111 5.97048 23.6685 5.82681 23.4683C5.68314 23.268 5.55037 23.0932 5.53173 23.0799C5.48243 23.0445 4.99636 23.0491 4.97423 23.0851ZM17.2763 24.4861C17.2879 24.6363 17.2974 25.3736 17.2975 26.1245C17.2977 27.194 17.2888 27.4901 17.2567 27.4912C17.2342 27.492 17.0089 27.5231 16.7562 27.5604C16.5034 27.5976 16.2376 27.6348 16.1653 27.6428L16.0341 27.6576L15.7614 27.3006C15.156 26.5083 14.0926 24.7958 14.1193 24.6562C14.1328 24.5854 14.2821 24.544 14.9345 24.43C15.567 24.3194 16.3763 24.2384 17.0385 24.2193L17.2552 24.213L17.2763 24.4861ZM19.2343 24.2999C19.7208 24.3479 20.4586 24.4641 20.8423 24.5532C20.9677 24.5823 21.0259 24.6129 21.0337 24.6535C21.0598 24.7903 20.1328 26.2958 19.4656 27.2002C19.0837 27.7179 19.1293 27.695 18.6553 27.6079C18.5134 27.5819 18.2928 27.5508 18.165 27.5389C18.0372 27.527 17.914 27.5057 17.8911 27.4914C17.8589 27.4713 17.8453 27.1313 17.8312 25.9962C17.8212 25.1881 17.8238 24.4548 17.8369 24.3665L17.8608 24.2059L18.2932 24.2278C18.531 24.2398 18.9545 24.2722 19.2343 24.2999ZM13.7996 25.2735C14.1646 25.915 14.5989 26.6017 15.0586 27.2642C15.2623 27.5578 15.4239 27.8131 15.4178 27.8317C15.4116 27.8503 15.2081 27.9513 14.9654 28.0562L14.5242 28.2469L14.278 28.1117C13.5524 27.7131 12.6122 27.0367 11.8327 26.3523C11.2168 25.8116 11.1544 25.7458 11.1656 25.6492C11.1752 25.5677 11.2141 25.5422 11.5499 25.3974C12.1875 25.1224 13.3863 24.7299 13.4789 24.7657C13.5013 24.7743 13.6456 25.0029 13.7996 25.2735ZM22.1306 24.8887C22.8428 25.0728 23.9608 25.502 23.9608 25.5914C23.9608 25.6946 23.22 26.3959 22.5726 26.9056C21.9086 27.4283 20.6766 28.2047 20.5308 28.1924C20.4947 28.1893 20.3027 28.1197 20.1041 28.0377C19.7658 27.8979 19.7437 27.8831 19.7529 27.8025C19.7583 27.7551 19.8553 27.5872 19.9685 27.4293C20.4279 26.7886 21.0032 25.8797 21.4963 25.0157C21.5717 24.8837 21.6468 24.7757 21.6632 24.7757C21.6797 24.7757 21.89 24.8266 22.1306 24.8887ZM25.292 26.2169C25.634 26.4088 25.9343 26.5863 25.9593 26.6115C25.9843 26.6366 25.996 26.6803 25.9853 26.7086C25.9362 26.8375 24.9211 27.4847 24.1249 27.8947C23.5637 28.1838 22.8435 28.4876 22.2577 28.6823C21.5748 28.9093 21.5462 28.9122 21.3663 28.7741C21.1211 28.586 21.1401 28.5415 21.5898 28.2511C22.4191 27.7155 22.9667 27.2905 23.7468 26.5771C24.2745 26.0945 24.5458 25.868 24.5962 25.868C24.6369 25.868 24.95 26.025 25.292 26.2169ZM11.0252 26.3075C11.7933 27.0621 12.8318 27.8639 13.7664 28.424C13.9747 28.5488 13.9737 28.6466 13.7628 28.7814C13.6781 28.8356 13.5832 28.88 13.5519 28.88C13.4484 28.88 12.6274 28.6124 12.1609 28.4266C11.2762 28.0743 10.4772 27.655 9.62805 27.0975C9.26706 26.8604 9.1936 26.7983 9.18231 26.7208C9.16665 26.6132 9.15349 26.6255 9.5283 26.3997C10.0273 26.0992 10.4178 25.9024 10.5164 25.9017C10.5941 25.9012 10.6873 25.9755 11.0252 26.3075ZM18.2833 28.0864C18.9517 28.1679 19.5127 28.3267 20.0385 28.5832C20.5005 28.8087 20.6926 28.9431 20.7049 29.0494C20.7135 29.1238 20.7001 29.1381 20.6064 29.1544C20.5468 29.1648 20.2838 29.2112 20.0221 29.2575C18.6715 29.4967 17.1462 29.5328 15.7879 29.3579C15.4725 29.3173 14.468 29.1477 14.4544 29.1327C14.4521 29.1303 14.4404 29.0956 14.4282 29.0558C14.4095 28.9943 14.4349 28.9647 14.5965 28.8599C15.174 28.4856 16.0161 28.1959 16.8396 28.0885C17.148 28.0483 17.961 28.0471 18.2833 28.0864Z" fill="#212F79"></path></svg>