<svg width="2.4375em" height="1.875em" viewBox="0 0 39 30" fill="none" xmlns="http://www.w3.org/2000/svg"><path fill-rule="evenodd" clip-rule="evenodd" d="M18.679 0.0136433C15.1102 0.251222 12.3006 0.881599 9.51497 2.0698C5.28173 3.87541 2.20448 6.78027 0.82288 10.2749C0.471424 11.1638 0.232371 12.0752 0.0737902 13.1307C-0.0136482 13.7127 -0.0269247 15.8985 0.053082 16.5462C0.442123 19.6972 1.61942 22.2187 3.69952 24.3561C4.99097 25.6831 6.35112 26.6651 8.12872 27.5538C10.7015 28.8401 13.5768 29.601 17.092 29.9257C18.1663 30.025 21.2173 30.0247 22.3368 29.9253C26.7645 29.532 30.7013 28.4781 34.5197 26.6638L35.0906 26.3925V23.399C35.0906 21.7526 35.0763 20.4055 35.0587 20.4055C35.0411 20.4055 34.8974 20.4498 34.7394 20.5038C33.658 20.8736 31.9989 21.1906 30.5906 21.2964C29.8375 21.3531 28.0091 21.3208 27.4074 21.2403C25.5604 20.9932 24.1739 20.5261 23.015 19.7604C22.486 19.4109 21.746 18.6959 21.4458 18.2443C20.8448 17.3402 20.5566 16.4056 20.511 15.2129C20.3663 11.4343 22.6857 9.02592 27.0168 8.45721C27.6481 8.37432 29.1081 8.34491 29.8655 8.39986C31.0002 8.48214 32.0899 8.65817 33.2375 8.94445C33.7471 9.07158 34.7858 9.37499 35.0229 9.46599C35.087 9.49058 35.0906 9.34007 35.0906 6.63439V3.77677L34.586 3.50102C33.0915 2.68428 31.1215 1.869 29.3233 1.32314C27.2393 0.690526 25.1909 0.297494 22.8593 0.082956C22.2225 0.0243718 19.2566 -0.0248339 18.679 0.0136433ZM12.573 5.91556C14.598 6.32572 16.311 7.83413 16.9319 9.75386C17.1457 10.415 17.1888 10.7061 17.1888 11.4905C17.1888 12.2714 17.1439 12.5744 16.9359 13.1967C16.4101 14.7703 15.1233 16.0855 13.4683 16.741C12.8004 17.0056 11.9088 17.1533 11.228 17.1122C10.8236 17.0878 10.659 17.053 10.3735 16.9309L10.2022 16.8577V15.2971V13.7365L10.3861 13.793C10.6773 13.8825 11.6664 13.905 12.0215 13.8302C12.4993 13.7295 12.918 13.4986 13.2832 13.1345C13.6243 12.7944 13.782 12.5219 13.8996 12.0694C13.9983 11.6894 13.9649 10.987 13.83 10.6075C13.5202 9.73564 12.7185 9.13745 11.7312 9.04147C10.678 8.93905 9.47088 9.83329 9.17566 10.9345C9.11811 11.1491 9.08362 14.4101 9.04271 23.4952L9.04104 23.8642L8.77393 23.8357C7.42817 23.6923 6.31532 22.8701 5.9855 21.7754C5.90406 21.5052 5.90402 21.5021 5.91528 15.9285L5.92655 10.3521L6.03032 9.96612C6.1591 9.48722 6.27665 9.18886 6.50568 8.75963C7.26975 7.32756 8.70983 6.25197 10.3184 5.91197C10.9407 5.78044 11.9135 5.78198 12.573 5.91556ZM30.6394 13.2465V14.7324H31.7231H32.8069V16.4886V18.245L34.9648 18.235L37.1227 18.225L37.1328 16.4787L37.1429 14.7324H38.0714H39V13.2465V11.7607H34.8197H30.6394V13.2465Z" fill="#212F79"></path></svg>